<?xml version="1.0" encoding="UTF-8" standalone="no"?>
<!DOCTYPE svg PUBLIC "-//W3C//DTD SVG 1.1//EN"
 "http://www.w3.org/Graphics/SVG/1.1/DTD/svg11.dtd">
<!-- Generated by graphviz version 2.40.1 (20161225.0304)
 -->
<!-- Title: workflow Pages: 1 -->
<svg width="367pt" height="180pt"
 viewBox="0.00 0.00 367.00 180.00" xmlns="http://www.w3.org/2000/svg" xmlns:xlink="http://www.w3.org/1999/xlink">
<g id="graph0" class="graph" transform="scale(1 1) rotate(0) translate(4 176)">
<title>workflow</title>
<polygon fill="#ffffff" stroke="transparent" points="-4,4 -4,-176 363,-176 363,4 -4,4"/>
<!-- place_0e7766b460fd2a39a2fd81d4a3a636b033b52be4 -->
<g id="node1" class="node">
<title>place_0e7766b460fd2a39a2fd81d4a3a636b033b52be4</title>
<ellipse fill="#add8e6" stroke="#333333" cx="36" cy="-88" rx="36" ry="36"/>
<text text-anchor="middle" x="36" y="-85.8" font-family="Arial" font-size="9.00" fill="#000000">draft</text>
</g>
<!-- place_b56f08775db75495b47fcebe192b46a1ddbf6416 -->
<g id="node2" class="node">
<title>place_b56f08775db75495b47fcebe192b46a1ddbf6416</title>
<ellipse fill="none" stroke="#333333" cx="184" cy="-88" rx="36" ry="36"/>
<text text-anchor="middle" x="184" y="-85.8" font-family="Arial" font-size="9.00" fill="#000000">reviewed</text>
</g>
<!-- place_0e7766b460fd2a39a2fd81d4a3a636b033b52be4&#45;&gt;place_b56f08775db75495b47fcebe192b46a1ddbf6416 -->
<g id="edge1" class="edge">
<title>place_0e7766b460fd2a39a2fd81d4a3a636b033b52be4&#45;&gt;place_b56f08775db75495b47fcebe192b46a1ddbf6416</title>
<path fill="none" stroke="#333333" d="M70.2775,-76.9843C76.7635,-75.3275 83.5407,-73.8805 90,-73 107.6149,-70.5989 112.3851,-70.5989 130,-73 134.8445,-73.6603 139.8678,-74.6394 144.8129,-75.7866"/>
<polygon fill="#333333" stroke="#333333" points="144.4502,-77.4994 149.7225,-76.9843 145.2798,-74.0991 144.4502,-77.4994"/>
<text text-anchor="middle" x="110" y="-75.8" font-family="Arial" font-size="9.00" fill="#000000">to_review</text>
</g>
<!-- place_b56f08775db75495b47fcebe192b46a1ddbf6416&#45;&gt;place_0e7766b460fd2a39a2fd81d4a3a636b033b52be4 -->
<g id="edge4" class="edge">
<title>place_b56f08775db75495b47fcebe192b46a1ddbf6416&#45;&gt;place_0e7766b460fd2a39a2fd81d4a3a636b033b52be4</title>
<path fill="none" stroke="#333333" d="M147.9127,-88C126.6222,-88 99.5953,-88 77.4352,-88"/>
<polygon fill="#333333" stroke="#333333" points="77.2049,-86.2501 72.2049,-88 77.2048,-89.7501 77.2049,-86.2501"/>
<text text-anchor="middle" x="110" y="-90.8" font-family="Arial" font-size="9.00" fill="#000000">draft</text>
</g>
<!-- place_1f087a5954f6249bb7245576c304a0520d4178c5 -->
<g id="node3" class="node">
<title>place_1f087a5954f6249bb7245576c304a0520d4178c5</title>
<ellipse fill="none" stroke="#333333" cx="323" cy="-136" rx="36" ry="36"/>
<text text-anchor="middle" x="323" y="-133.8" font-family="Arial" font-size="9.00" fill="#000000">rejected</text>
</g>
<!-- place_b56f08775db75495b47fcebe192b46a1ddbf6416&#45;&gt;place_1f087a5954f6249bb7245576c304a0520d4178c5 -->
<g id="edge3" class="edge">
<title>place_b56f08775db75495b47fcebe192b46a1ddbf6416&#45;&gt;place_1f087a5954f6249bb7245576c304a0520d4178c5</title>
<path fill="none" stroke="#333333" d="M218.3596,-99.8652C238.1573,-106.7018 263.1176,-115.3212 283.6945,-122.4269"/>
<polygon fill="#333333" stroke="#333333" points="283.2566,-124.127 288.554,-124.105 284.3991,-120.8187 283.2566,-124.127"/>
<text text-anchor="middle" x="253.5" y="-118.8" font-family="Arial" font-size="9.00" fill="#000000">reject</text>
</g>
<!-- place_c2807535f28e44fe6c7375dcf90518115529a8fa -->
<g id="node4" class="node">
<title>place_c2807535f28e44fe6c7375dcf90518115529a8fa</title>
<ellipse fill="none" stroke="#333333" cx="323" cy="-36" rx="36" ry="36"/>
<text text-anchor="middle" x="323" y="-33.8" font-family="Arial" font-size="9.00" fill="#000000">published</text>
</g>
<!-- place_b56f08775db75495b47fcebe192b46a1ddbf6416&#45;&gt;place_c2807535f28e44fe6c7375dcf90518115529a8fa -->
<g id="edge2" class="edge">
<title>place_b56f08775db75495b47fcebe192b46a1ddbf6416&#45;&gt;place_c2807535f28e44fe6c7375dcf90518115529a8fa</title>
<path fill="none" stroke="#333333" d="M218.0032,-75.2794C237.9444,-67.8194 263.215,-58.3656 283.9672,-50.6022"/>
<polygon fill="#333333" stroke="#333333" points="284.7962,-52.1606 288.8661,-48.7695 283.5698,-48.8825 284.7962,-52.1606"/>
<text text-anchor="middle" x="253.5" y="-68.8" font-family="Arial" font-size="9.00" fill="#000000">publish</text>
</g>
<!-- place_1f087a5954f6249bb7245576c304a0520d4178c5&#45;&gt;place_0e7766b460fd2a39a2fd81d4a3a636b033b52be4 -->
<g id="edge6" class="edge">
<title>place_1f087a5954f6249bb7245576c304a0520d4178c5&#45;&gt;place_0e7766b460fd2a39a2fd81d4a3a636b033b52be4</title>
<path fill="none" stroke="#333333" d="M287.062,-139.1602C251.3939,-141.4166 195.3552,-142.5793 148,-133 122.0307,-127.7468 94.3931,-116.7056 73.07,-106.8753"/>
<polygon fill="#333333" stroke="#333333" points="73.6147,-105.1983 68.3438,-104.6687 72.1339,-108.3696 73.6147,-105.1983"/>
<text text-anchor="middle" x="184" y="-142.8" font-family="Arial" font-size="9.00" fill="#000000">draft</text>
</g>
<!-- place_c2807535f28e44fe6c7375dcf90518115529a8fa&#45;&gt;place_0e7766b460fd2a39a2fd81d4a3a636b033b52be4 -->
<g id="edge5" class="edge">
<title>place_c2807535f28e44fe6c7375dcf90518115529a8fa&#45;&gt;place_0e7766b460fd2a39a2fd81d4a3a636b033b52be4</title>
<path fill="none" stroke="#333333" d="M287.2722,-30.3679C251.5243,-25.8971 195.2094,-22.0339 148,-33 120.6178,-39.3605 92.2168,-53.4054 70.866,-65.7096"/>
<polygon fill="#333333" stroke="#333333" points="69.8555,-64.2731 66.4199,-68.3054 71.6202,-67.2957 69.8555,-64.2731"/>
<text text-anchor="middle" x="184" y="-35.8" font-family="Arial" font-size="9.00" fill="#000000">draft</text>
</g>
</g>
</svg>
